<?xml version="1.0" encoding="UTF-8" standalone="no"?>
<!-- Uploaded to: SVG Repo, www.svgrepo.com, Generator: SVG Repo Mixer Tools -->

<svg
   fill="#000000"
   version="1.1"
   id="Capa_1"
   width="800px"
   height="800px"
   viewBox="0 0 496.304 496.303"
   xml:space="preserve"
   sodipodi:docname="information.svg"
   inkscape:version="1.4.2 (f4327f4, 2025-05-13)"
   xmlns:inkscape="http://www.inkscape.org/namespaces/inkscape"
   xmlns:sodipodi="http://sodipodi.sourceforge.net/DTD/sodipodi-0.dtd"
   xmlns="http://www.w3.org/2000/svg"
   xmlns:svg="http://www.w3.org/2000/svg"><defs
   id="defs1" /><sodipodi:namedview
   id="namedview1"
   pagecolor="#ffffff"
   bordercolor="#000000"
   borderopacity="0.25"
   inkscape:showpageshadow="2"
   inkscape:pageopacity="0.0"
   inkscape:pagecheckerboard="0"
   inkscape:deskcolor="#d1d1d1"
   inkscape:zoom="0.459375"
   inkscape:cx="-28.29932"
   inkscape:cy="730.34014"
   inkscape:window-width="1920"
   inkscape:window-height="974"
   inkscape:window-x="-11"
   inkscape:window-y="-11"
   inkscape:window-maximized="1"
   inkscape:current-layer="Capa_1" />
<g
   id="g1"
   transform="matrix(0.85034014,0,0,0.82584999,40.514612,37.813638)">
	<path
   d="M 248.146,0 C 111.314,0 0,111.321 0,248.152 0,384.981 111.314,496.303 248.146,496.303 384.981,496.303 496.304,384.981 496.304,248.152 496.304,111.321 384.98,0 248.146,0 Z m 0,472.093 c -123.473,0 -223.935,-100.459 -223.935,-223.941 0,-123.479 100.462,-223.941 223.935,-223.941 123.488,0 223.947,100.462 223.947,223.941 0,123.482 -100.459,223.941 -223.947,223.941 z m 71.39,-88.673 v 32.852 c 0,1.383 -1.123,2.494 -2.482,2.494 H 196.45 c -1.374,0 -2.482,-1.117 -2.482,-2.494 V 383.42 c 0,-1.372 1.114,-2.482 2.482,-2.482 h 34.744 V 205.831 h -35.101 c -1.375,0 -2.468,-1.111 -2.468,-2.474 v -33.6 c 0,-1.38 1.1,-2.479 2.468,-2.479 h 82.293 c 1.371,0 2.482,1.105 2.482,2.479 v 211.181 h 36.186 c 1.359,0 2.482,1.11 2.482,2.482 z M 209.93,105.927 c 0,-20.895 16.929,-37.829 37.829,-37.829 20.886,0 37.826,16.935 37.826,37.829 0,20.894 -16.94,37.829 -37.826,37.829 -20.906,0 -37.829,-16.934 -37.829,-37.829 z"
   id="path1" />
</g>
</svg>
