<?xml version="1.0" encoding="UTF-8" standalone="no"?>
<!DOCTYPE svg PUBLIC "-//W3C//DTD SVG 1.1//EN" "http://www.w3.org/Graphics/SVG/1.1/DTD/svg11.dtd">
<svg width="100%" height="100%" viewBox="0 0 3508 4961" version="1.1" xmlns="http://www.w3.org/2000/svg" xmlns:xlink="http://www.w3.org/1999/xlink" xml:space="preserve" xmlns:serif="http://www.serif.com/" style="fill-rule:evenodd;clip-rule:evenodd;stroke-linecap:round;stroke-linejoin:round;stroke-miterlimit:1.5;">
    <g transform="matrix(2.701075,0,0,2.701075,-2033.925647,-3576.501162)">
        <rect x="1170.953" y="1927.405" width="157.472" height="649.228" style="fill:rgb(201,163,108);stroke:black;stroke-width:6.77px;"/>
    </g>
    <g transform="matrix(2.701075,0,0,2.701075,-1198.16037,-3576.501162)">
        <rect x="1170.953" y="1927.405" width="157.472" height="649.228" style="fill:rgb(201,163,108);stroke:black;stroke-width:6.77px;"/>
    </g>
    <g transform="matrix(2.701075,0,0,2.701075,-2764.949891,-3569.038972)">
        <rect x="2099.212" y="1963.32" width="82.88" height="571.873" style="fill:rgb(245,143,53);stroke:black;stroke-width:6.77px;"/>
    </g>
    <g transform="matrix(2.701075,0,0,2.701075,-5295.600712,-3569.038972)">
        <rect x="2099.212" y="1963.32" width="82.88" height="571.873" style="fill:rgb(245,143,53);stroke:black;stroke-width:6.77px;"/>
    </g>
    <g transform="matrix(2.257845,0,0,2.701075,-1749.534326,-3823.503482)">
        <rect x="1039.898" y="1603.1" width="1021.676" height="82.88" style="fill:rgb(245,143,53);stroke:black;stroke-width:7.35px;"/>
    </g>
    <g transform="matrix(2.701075,0,0,2.701075,-2436.867419,-3576.501162)">
        <path d="M1316.284,2963.471L1443.086,2963.471" style="fill:none;stroke:black;stroke-width:6.77px;"/>
    </g>
    <g transform="matrix(2.701075,0,0,2.701075,-2436.867419,-3576.501162)">
        <path d="M1709.493,2963.471L1828.889,2963.471" style="fill:none;stroke:black;stroke-width:6.77px;"/>
    </g>
    <g transform="matrix(5.427736,0,0,37.767342,-1054.054572,-61791.738697)">
        <rect x="258.696" y="1648.99" width="517.289" height="105.598" style="fill:none;stroke:black;stroke-width:0.48px;"/>
    </g>
</svg>
