<?xml version="1.0" encoding="UTF-8" standalone="no"?>
<!DOCTYPE svg PUBLIC "-//W3C//DTD SVG 1.1//EN" "http://www.w3.org/Graphics/SVG/1.1/DTD/svg11.dtd">
<svg width="100%" height="100%" viewBox="0 0 3508 4961" version="1.1" xmlns="http://www.w3.org/2000/svg" xmlns:xlink="http://www.w3.org/1999/xlink" xml:space="preserve" xmlns:serif="http://www.serif.com/" style="fill-rule:evenodd;clip-rule:evenodd;stroke-linecap:round;stroke-linejoin:round;stroke-miterlimit:1.5;">
    <g transform="matrix(2.5068,0,0,-2.5068,-2190.971014,7854.101104)">
        <rect x="1170.953" y="1927.405" width="157.472" height="649.228" style="fill:rgb(201,108,144);stroke:black;stroke-width:7.3px;"/>
    </g>
    <g transform="matrix(2.5068,0,0,-2.5068,-1415.318329,7854.101104)">
        <rect x="1170.953" y="1927.405" width="157.472" height="649.228" style="fill:rgb(201,108,144);stroke:black;stroke-width:7.3px;"/>
    </g>
    <g transform="matrix(2.5068,0,0,-2.5068,-643.128379,7854.101104)">
        <rect x="1170.953" y="1927.405" width="157.472" height="649.228" style="fill:rgb(201,108,144);stroke:black;stroke-width:7.3px;"/>
    </g>
    <g transform="matrix(2.5068,0,0,-2.5068,-2190.971014,7854.101104)">
        <rect x="2099.212" y="1963.32" width="82.88" height="571.873" style="fill:rgb(245,53,128);stroke:black;stroke-width:7.3px;"/>
    </g>
    <g transform="matrix(2.5068,0,0,-2.5068,-5080.623538,7854.101104)">
        <rect x="2099.212" y="1963.32" width="82.88" height="571.873" style="fill:rgb(245,53,128);stroke:black;stroke-width:7.3px;"/>
    </g>
    <g transform="matrix(2.5068,0,0,-2.5068,-2190.971014,7854.101104)">
        <rect x="1039.898" y="1603.1" width="1021.676" height="82.88" style="fill:rgb(245,53,128);stroke:black;stroke-width:7.3px;"/>
    </g>
    <g transform="matrix(2.5068,0,0,-2.5068,-2190.971014,7854.101104)">
        <path d="M946.486,2963.471L1065.377,2963.471" style="fill:none;stroke:black;stroke-width:7.3px;"/>
    </g>
    <g transform="matrix(2.5068,0,0,-2.5068,-2190.971014,7854.101104)">
        <path d="M1316.284,2963.471L1443.086,2963.471" style="fill:none;stroke:black;stroke-width:7.3px;"/>
    </g>
    <g transform="matrix(2.5068,0,0,-2.5068,-2190.971014,7854.101104)">
        <path d="M1709.493,2963.471L1828.889,2963.471" style="fill:none;stroke:black;stroke-width:7.3px;"/>
    </g>
    <g transform="matrix(2.5068,0,0,-2.5068,-2266.175009,7854.101104)">
        <path d="M2061.574,2963.471L2230.88,2963.471" style="fill:none;stroke:black;stroke-width:7.3px;"/>
    </g>
    <g transform="matrix(6.227382,0,0,-35.325568,-1487.74412,62247.031461)">
        <rect x="258.696" y="1648.99" width="517.289" height="105.598" style="fill:none;stroke:black;stroke-width:0.51px;"/>
    </g>
</svg>
