<?xml version="1.0" encoding="UTF-8" standalone="no"?>
<!DOCTYPE svg PUBLIC "-//W3C//DTD SVG 1.1//EN" "http://www.w3.org/Graphics/SVG/1.1/DTD/svg11.dtd">
<svg width="100%" height="100%" viewBox="0 0 3508 4961" version="1.1" xmlns="http://www.w3.org/2000/svg" xmlns:xlink="http://www.w3.org/1999/xlink" xml:space="preserve" xmlns:serif="http://www.serif.com/" style="fill-rule:evenodd;clip-rule:evenodd;stroke-linecap:round;stroke-linejoin:round;stroke-miterlimit:1.5;">
    <path d="M261.765,1150.306L261.765,1751.842L775.986,1751.842L775.986,1686.362L854.438,1686.362L854.438,1794.997L1173.912,1794.997L1173.912,1664.087L1292.029,1664.087L1292.362,1794.997L2745.061,1794.997L2745.061,1534.327L3008.168,1534.327L3008.168,1928.546L3413.661,1934.33L3413.661,1140.919L3009.373,1140.919L261.765,1150.306Z" style="fill:rgb(238,199,115);"/>
    <rect x="258.696" y="1648.99" width="517.289" height="105.598" style="fill:rgb(223,223,223);fill-opacity:0.73;"/>
    <g transform="matrix(0.4621,0,0,3.849738,428.504121,-5197.875477)">
        <rect x="258.696" y="1648.99" width="517.289" height="105.598" style="fill:rgb(151,185,253);fill-opacity:0.73;"/>
    </g>
    <g transform="matrix(0.504566,0,0,3.849738,656.558087,-5197.875477)">
        <rect x="258.696" y="1648.99" width="517.289" height="105.598" style="fill:rgb(197,151,253);fill-opacity:0.73;"/>
    </g>
    <g transform="matrix(0.678653,0,0,3.849738,872.529383,-5197.875477)">
        <rect x="258.696" y="1648.99" width="517.289" height="105.598" style="fill:rgb(248,151,253);fill-opacity:0.73;"/>
    </g>
    <g transform="matrix(0.672945,0,0,3.667871,1709.237969,-4897.978721)">
        <rect x="258.696" y="1648.99" width="517.289" height="105.598" style="fill:rgb(253,151,191);fill-opacity:0.73;"/>
    </g>
    <g transform="matrix(0.516211,0,0,3.667871,2097.891873,-4897.978721)">
        <rect x="258.696" y="1648.99" width="517.289" height="105.598" style="fill:rgb(188,253,151);fill-opacity:0.73;"/>
    </g>
    <g transform="matrix(0.481964,0,0,3.667871,2373.781615,-4897.69563)">
        <rect x="258.696" y="1648.99" width="517.289" height="105.598" style="fill:rgb(151,239,253);fill-opacity:0.73;"/>
    </g>
    <g transform="matrix(0.527128,0,0,3.667871,2611.412711,-4897.69563)">
        <rect x="258.696" y="1648.99" width="517.289" height="105.598" style="fill:rgb(253,176,151);fill-opacity:0.73;"/>
    </g>
    <g transform="matrix(0.767603,0,0,6.329708,2821.880849,-9287.038704)">
        <rect x="258.696" y="1648.99" width="517.289" height="105.598" style="fill:rgb(151,253,227);fill-opacity:0.73;"/>
    </g>
    <g transform="matrix(0.766915,0,0,1.220767,578.797104,-456.204065)">
        <rect x="258.696" y="1648.99" width="517.289" height="105.598" style="fill:rgb(223,223,223);fill-opacity:0.73;"/>
    </g>
    <g transform="matrix(0.618568,0,0,1.114526,693.912319,-161.930061)">
        <rect x="258.696" y="1648.99" width="517.289" height="105.598" style="fill:rgb(223,223,223);fill-opacity:0.73;"/>
    </g>
    <g transform="matrix(1.543975,0,0,2.498355,1547.244576,-2582.138399)">
        <rect x="258.696" y="1648.99" width="517.289" height="105.598" style="fill:rgb(223,223,223);fill-opacity:0.73;"/>
    </g>
    <g transform="matrix(0.424961,0,0,1,1063.976478,-92.161428)">
        <rect x="258.696" y="1648.99" width="517.289" height="105.598" style="fill:rgb(223,223,223);fill-opacity:0.73;"/>
    </g>
    <g transform="matrix(0.748744,0,0,1.055482,2827.207024,74.962174)">
        <rect x="258.696" y="1648.99" width="517.289" height="105.598" style="fill:rgb(223,223,223);fill-opacity:0.73;"/>
    </g>
    <g transform="matrix(0.196955,0,0,1.255429,1240.905578,-407.763846)">
        <rect x="258.696" y="1648.99" width="517.289" height="105.598" style="fill:rgb(223,223,223);fill-opacity:0.73;"/>
    </g>
    <path d="M1292.362,1664.087L1257.049,1664.087" style="fill:none;stroke:rgb(70,10,21);stroke-width:12.98px;"/>
    <g transform="matrix(1,0,0,0.913697,-251.130623,132.417799)">
        <path d="M2747.347,1534.327L2747.347,1826.675" style="fill:none;stroke:rgb(70,10,21);stroke-width:13.55px;"/>
    </g>
    <g transform="matrix(1,0,0,0.258481,-801.488664,1147.46427)">
        <path d="M2747.347,1534.327L2747.347,1826.675" style="fill:none;stroke:rgb(70,10,21);stroke-width:17.78px;"/>
    </g>
    <g transform="matrix(1,0,0,0.333184,-801.488664,1186.378513)">
        <path d="M2747.347,1534.327L2747.347,1826.675" style="fill:none;stroke:rgb(70,10,21);stroke-width:17.42px;"/>
    </g>
    <g transform="matrix(1,0,0,0.258481,-1034.003119,1146.259915)">
        <path d="M2747.347,1534.327L2747.347,1826.675" style="fill:none;stroke:rgb(70,10,21);stroke-width:17.78px;"/>
    </g>
    <g transform="matrix(1,0,0,0.333184,-1034.003119,1185.174159)">
        <path d="M2747.347,1534.327L2747.347,1826.675" style="fill:none;stroke:rgb(70,10,21);stroke-width:17.42px;"/>
    </g>
    <g transform="matrix(1,0,0,0.814673,-1573.435062,306.853484)">
        <path d="M2747.347,1534.327L2747.347,1826.675" style="fill:none;stroke:rgb(70,10,21);stroke-width:14.23px;"/>
    </g>
    <path d="M775.986,1685.27L853.934,1685.27" style="fill:none;stroke:rgb(70,10,21);stroke-width:12.98px;"/>
    <g transform="matrix(-0,1,-1.094514,-0,2853.255134,-952.350599)">
        <path d="M2747.347,1534.327L2747.347,1826.675" style="fill:none;stroke:rgb(70,10,21);stroke-width:12.38px;"/>
    </g>
    <g transform="matrix(1.010179,0,0,1,-2.371572,9)">
        <path d="M232.985,1141.306L2992.369,1141.306" style="fill:none;stroke:rgb(70,10,21);stroke-width:27.46px;"/>
    </g>
    <g transform="matrix(0.960475,0,0,1,118.944845,0)">
        <path d="M3431.202,1140.919L3009.373,1140.919" style="fill:none;stroke:rgb(70,10,21);stroke-width:28.15px;"/>
    </g>
    <g transform="matrix(1,0,0,0.930111,0,116.804668)">
        <path d="M3414.53,1101.067L3414.53,1954.095" style="fill:none;stroke:rgb(70,10,21);stroke-width:28.58px;"/>
    </g>
    <g transform="matrix(0.950096,0,0,1,150.611792,0)">
        <path d="M3435.357,1934.33L3018.017,1934.33" style="fill:none;stroke:rgb(70,10,21);stroke-width:28.29px;"/>
    </g>
    <g transform="matrix(1,0,0,0.974359,0,39.341727)">
        <path d="M3018.017,1944.856L3018.017,1534.327" style="fill:none;stroke:rgb(70,10,21);stroke-width:27.95px;"/>
    </g>
    <path d="M2666.113,1534.327L3024.898,1534.327" style="fill:none;stroke:rgb(70,10,21);stroke-width:12.98px;"/>
    <g transform="matrix(1,0,0,0.913697,-2,132.417799)">
        <path d="M2747.347,1534.327L2747.347,1826.675" style="fill:none;stroke:rgb(70,10,21);stroke-width:13.55px;"/>
    </g>
    <g transform="matrix(1,0,0,1,0,6)">
        <path d="M2745.347,1794.997L2689.03,1794.997" style="fill:none;stroke:rgb(70,10,21);stroke-width:12.98px;"/>
    </g>
    <path d="M2625.538,1800.997L2496.217,1800.997" style="fill:none;stroke:rgb(70,10,21);stroke-width:12.98px;"/>
    <g transform="matrix(1,0,0,0.913697,-2,132.417799)">
        <path d="M2747.347,1534.327L2747.347,1826.675" style="fill:none;stroke:rgb(70,10,21);stroke-width:13.55px;"/>
    </g>
    <path d="M2496.217,1794.631L2357.209,1794.631" style="fill:none;stroke:rgb(70,10,21);stroke-width:12.98px;"/>
    <g transform="matrix(0.8875,0,0,1,239.335669,0)">
        <path d="M2127.428,1794.631L2030.679,1794.631" style="fill:none;stroke:rgb(70,10,21);stroke-width:13.73px;"/>
    </g>
    <g transform="matrix(0.814286,0,0,1,364.599958,0)">
        <path d="M1963.231,1794.631L1920.903,1794.631" style="fill:none;stroke:rgb(70,10,21);stroke-width:14.24px;"/>
    </g>
    <path d="M1818.3,1794.631L1837.456,1794.631" style="fill:none;stroke:rgb(70,10,21);stroke-width:12.98px;"/>
    <path d="M2263.483,1794.631L2215.864,1794.631" style="fill:none;stroke:rgb(114,109,110);stroke-width:12.98px;"/>
    <path d="M1668.749,1794.631L1729.822,1794.631" style="fill:none;stroke:rgb(70,10,21);stroke-width:12.98px;"/>
    <path d="M1523.019,1794.631L1593.768,1794.631" style="fill:none;stroke:rgb(70,10,21);stroke-width:12.98px;"/>
    <g transform="matrix(0.855422,0,0,1,207.956154,0)">
        <path d="M1438.363,1794.631L1388.174,1794.631L1396.64,1794.631" style="fill:none;stroke:rgb(70,10,21);stroke-width:13.95px;"/>
    </g>
    <path d="M1395.431,1794.631L1395.431,1625.481" style="fill:none;stroke:rgb(70,10,21);stroke-width:12.98px;"/>
    <path d="M1292.029,1625.481L1292.029,1801.444" style="fill:none;stroke:rgb(70,10,21);stroke-width:12.98px;"/>
    <path d="M1400.04,1278.768L1400.04,1409.728" style="fill:none;stroke:rgb(70,10,21);stroke-width:12.98px;"/>
    <g transform="matrix(1,0,0,1,481.268273,0)">
        <path d="M1400.04,1278.768L1400.04,1409.728" style="fill:none;stroke:rgb(70,10,21);stroke-width:12.98px;"/>
    </g>
    <g transform="matrix(1,0,0,1,830.409189,0)">
        <path d="M1400.04,1278.768L1400.04,1409.728" style="fill:none;stroke:rgb(70,10,21);stroke-width:12.98px;"/>
    </g>
    <g transform="matrix(1,0,0,1,1098.423755,0)">
        <path d="M1400.04,1278.768L1400.04,1409.728" style="fill:none;stroke:rgb(70,10,21);stroke-width:12.98px;"/>
    </g>
    <g transform="matrix(1,0,0,1,1347.10824,0)">
        <path d="M1400.04,1278.768L1400.04,1409.728" style="fill:none;stroke:rgb(70,10,21);stroke-width:12.98px;"/>
    </g>
    <g transform="matrix(1,0,0,1,1620.416665,0)">
        <path d="M1400.04,1278.768L1400.04,1409.728" style="fill:none;stroke:rgb(70,10,21);stroke-width:12.98px;"/>
    </g>
    <g transform="matrix(1,0,0,1,-351.945847,0)">
        <path d="M1400.04,1278.768L1400.04,1409.728" style="fill:none;stroke:rgb(70,10,21);stroke-width:12.98px;"/>
    </g>
    <g transform="matrix(1,0,0,1,-612.952666,0)">
        <path d="M1400.04,1278.768L1400.04,1409.728" style="fill:none;stroke:rgb(70,10,21);stroke-width:12.98px;"/>
    </g>
    <g transform="matrix(1,0,0,1,-851.992381,0)">
        <path d="M1400.04,1278.768L1400.04,1409.728" style="fill:none;stroke:rgb(70,10,21);stroke-width:12.98px;"/>
    </g>
    <g transform="matrix(1,0,0,0.274515,-608.700986,1169.836823)">
        <path d="M1400.04,1278.768L1400.04,1409.728" style="fill:none;stroke:rgb(70,10,21);stroke-width:17.71px;"/>
    </g>
    <g transform="matrix(1,0,0,0.274515,-348.875224,1169.836823)">
        <path d="M1400.04,1278.768L1400.04,1409.728" style="fill:none;stroke:rgb(70,10,21);stroke-width:17.71px;"/>
    </g>
    <g transform="matrix(1,0,0,1.45091,-1141.343798,-620.306834)">
        <path d="M1400.04,1278.768L1400.04,1409.728" style="fill:none;stroke:rgb(70,10,21);stroke-width:10.42px;"/>
    </g>
    <g transform="matrix(1,0,0,1.890917,-1141.343798,-914.881393)">
        <path d="M1400.04,1278.768L1400.04,1409.728" style="fill:none;stroke:rgb(70,10,21);stroke-width:8.58px;"/>
    </g>
    <g transform="matrix(0,1,-3.949969,0,5827.079595,351.801786)">
        <path d="M1400.04,1278.768L1400.04,1409.728" style="fill:none;stroke:rgb(70,10,21);stroke-width:4.51px;"/>
    </g>
    <g transform="matrix(1,0,0,0.835789,-624.054327,572.563415)">
        <path d="M1400.04,1278.768L1400.04,1409.728" style="fill:none;stroke:rgb(70,10,21);stroke-width:14.09px;"/>
    </g>
    <g transform="matrix(0,1,-4.805678,0,7550.686129,156.788676)">
        <path d="M1400.04,1278.768L1400.04,1409.728" style="fill:none;stroke:rgb(70,10,21);stroke-width:3.74px;"/>
    </g>
    <g transform="matrix(0,1,-5.581242,0,9707.982569,133.813355)">
        <path d="M1400.04,1278.768L1400.04,1409.728" style="fill:none;stroke:rgb(70,10,21);stroke-width:3.24px;"/>
    </g>
    <g transform="matrix(0,1,-1.61899,0,3813.856467,133.62214)">
        <path d="M1400.04,1278.768L1400.04,1409.728" style="fill:none;stroke:rgb(70,10,21);stroke-width:9.65px;"/>
    </g>
    <path d="M538.676,1533.662L554.398,1533.662L554.398,1517.001L539.281,1517.001L538.676,1533.662Z" style="fill:rgb(70,10,21);stroke:rgb(70,10,21);stroke-width:12.98px;"/>
    <g transform="matrix(1,0,0,0.909313,-546.106598,513.112975)">
        <path d="M1400.04,1278.768L1400.04,1409.728" style="fill:none;stroke:rgb(70,10,21);stroke-width:13.58px;"/>
    </g>
    <g transform="matrix(1,0,0,0.274515,5.299114,1169.836823)">
        <path d="M1400.04,1278.768L1400.04,1409.728" style="fill:none;stroke:rgb(70,10,21);stroke-width:17.71px;"/>
    </g>
    <g transform="matrix(1,0,0,1,0,5)">
        <path d="M3020.905,1810.441L3414.53,1810.441" style="fill:none;stroke:rgb(70,10,21);stroke-width:12.98px;"/>
    </g>
    <path d="M1173.912,1664.087L1194.162,1664.087" style="fill:none;stroke:rgb(70,10,21);stroke-width:12.98px;"/>
    <g transform="matrix(1,0,0,1,57.667185,0)">
        <path d="M2171.19,1607.449L2216.082,1607.449L2216.082,1647.696L2258.5,1647.696L2258.5,1689.492L2298.125,1689.492L2298.125,1732.062L2341.856,1732.062" style="fill:none;stroke:rgb(70,10,21);stroke-width:19.63px;"/>
    </g>
    <path d="M2124.262,1669.755L2002.38,1669.755L2036.809,1704.184" style="fill:none;stroke:rgb(70,10,21);stroke-width:19.63px;"/>
    <path d="M2002.38,1669.755L2033.144,1632.378" style="fill:none;stroke:rgb(70,10,21);stroke-width:19.63px;"/>
    <g transform="matrix(1,0,0,1,-261.039725,-53.148482)">
        <g transform="matrix(83.333333,0,0,83.333333,670.836879,1409.728318)">
        </g>
        <text x="617.004px" y="1409.728px" style="font-family:'BodoniMT', 'Bodoni MT', serif;font-size:83.333px;fill:rgb(255,236,201);">F</text>
    </g>
    <g transform="matrix(1,0,0,1,-238.814643,-64.542939)">
        <g transform="matrix(83.333333,0,0,83.333333,900.604389,1419.04758)">
        </g>
        <text x="846.771px" y="1419.048px" style="font-family:'BodoniMT-Bold', 'Bodoni MT', serif;font-weight:700;font-size:83.333px;fill:rgb(70,10,21);">G</text>
    </g>
    <g transform="matrix(1,0,0,1,-270.050216,-87.986092)">
        <g transform="matrix(83.333333,0,0,83.333333,1193.915637,1442.490733)">
        </g>
        <text x="1130.602px" y="1442.491px" style="font-family:'BodoniMT-Bold', 'Bodoni MT', serif;font-weight:700;font-size:83.333px;fill:rgb(70,10,21);">H</text>
    </g>
    <g transform="matrix(1,0,0,1,-382.050216,-55.268312)">
        <g transform="matrix(83.333333,0,0,83.333333,1625.892101,1409.772953)">
        </g>
        <text x="1594.642px" y="1409.773px" style="font-family:'BodoniMT-Bold', 'Bodoni MT', serif;font-weight:700;font-size:83.333px;fill:rgb(70,10,21);">I</text>
    </g>
    <g transform="matrix(1,0,0,1,-362.6399,-64.504273)">
        <g transform="matrix(83.333333,0,0,83.333333,2036.269703,1420.163466)">
        </g>
        <text x="1991.104px" y="1420.163px" style="font-family:'BodoniMT', 'Bodoni MT', serif;font-size:83.333px;fill:rgb(255,238,203);">J</text>
    </g>
    <g transform="matrix(1,0,0,1,-270.050216,-6.973325)">
        <g transform="matrix(83.333333,0,0,83.333333,2368.157056,1361.477966)">
        </g>
        <text x="2306.471px" y="1361.478px" style="font-family:'BodoniMT-Bold', 'Bodoni MT', serif;font-weight:700;font-size:83.333px;fill:rgb(70,10,21);">K</text>
    </g>
    <g transform="matrix(1,0,0,1,0,-113.456035)">
        <g transform="matrix(83.333333,0,0,83.333333,2383.022186,1467.960676)">
        </g>
        <text x="2333.502px" y="1467.961px" style="font-family:'BodoniMT-Bold', 'Bodoni MT', serif;font-weight:700;font-size:83.333px;fill:rgb(70,10,21);">L</text>
    </g>
    <g transform="matrix(1,0,0,1,52.235499,-72.970348)">
        <g transform="matrix(83.333333,0,0,83.333333,2603.987391,1427.474989)">
        </g>
        <text x="2536.238px" y="1427.475px" style="font-family:'BodoniMT-Bold', 'Bodoni MT', serif;font-weight:700;font-size:83.333px;fill:rgb(70,10,21);">M</text>
    </g>
    <g transform="matrix(1,0,0,1,0,-37.212238)">
        <g transform="matrix(83.333333,0,0,83.333333,2896.428056,1391.716879)">
        </g>
        <text x="2842.595px" y="1391.717px" style="font-family:'BodoniMT-Bold', 'Bodoni MT', serif;font-weight:700;font-size:83.333px;fill:rgb(70,10,21);">N</text>
    </g>
    <g transform="matrix(1,0,0,1,-75.141643,113.456035)">
        <g transform="matrix(83.333333,0,0,83.333333,3315.415869,1242.106548)">
        </g>
        <text x="3261.583px" y="1242.107px" style="font-family:'BodoniMT-Bold', 'Bodoni MT', serif;font-weight:700;font-size:83.333px;fill:rgb(70,10,21);">O</text>
    </g>
    <g transform="matrix(1,0,0,1,28.071308,-27.031472)">
        <g transform="matrix(83.333333,0,0,83.333333,1812.937659,1719.66255)">
        </g>
        <text x="1753.937px" y="1719.663px" style="font-family:'BodoniMT', 'Bodoni MT', serif;font-size:83.333px;fill:rgb(255,237,202);">A</text>
    </g>
    <g transform="matrix(1,0,0,1,-49.557698,-4.960255)">
        <g transform="matrix(83.333333,0,0,83.333333,1616.786987,1697.591333)">
        </g>
        <text x="1558.6px" y="1697.591px" style="font-family:'BodoniMT', 'Bodoni MT', serif;font-size:83.333px;fill:rgb(255,236,201);">B</text>
    </g>
</svg>
