<?xml version="1.0" encoding="UTF-8" standalone="no"?>
<!DOCTYPE svg PUBLIC "-//W3C//DTD SVG 1.1//EN" "http://www.w3.org/Graphics/SVG/1.1/DTD/svg11.dtd">
<svg width="100%" height="100%" viewBox="0 0 800 800" version="1.1" xmlns="http://www.w3.org/2000/svg" xmlns:xlink="http://www.w3.org/1999/xlink" xml:space="preserve" xmlns:serif="http://www.serif.com/" style="fill-rule:evenodd;clip-rule:evenodd;stroke-linejoin:round;stroke-miterlimit:2;">
    <g transform="matrix(2.539683,0,0,2.539683,0,0)">
        <path d="M157.5,0C93.319,0 41.103,52.215 41.103,116.397C41.103,178.535 147.216,306.863 151.733,312.295C153.158,314.008 155.271,315 157.5,315C159.728,315 161.842,314.009 163.267,312.295C167.785,306.862 273.897,178.535 273.897,116.397C273.897,52.215 221.682,0 157.5,0ZM157.5,172.119C139.668,171.392 107.271,159.753 103.609,119C101.006,90.025 122.9,64.048 157.5,63.786C194.652,63.505 210.565,94.15 210.692,119C210.911,161.913 174.649,172.817 157.5,172.119Z" style="fill:rgb(0,94,158);fill-rule:nonzero;"/>
    </g>
    <g transform="matrix(2.539683,0,0,2.539683,0,0)">
        <g>
            <g>
                <path d="M157.5,0C93.319,0 41.103,52.215 41.103,116.397C41.103,178.535 147.216,306.863 151.733,312.295C153.158,314.008 155.271,315 157.5,315C159.728,315 161.842,314.009 163.267,312.295C167.785,306.862 273.897,178.535 273.897,116.397C273.897,52.215 221.682,0 157.5,0ZM157.5,295.598C148.091,283.849 128.542,258.817 109.197,230.201C74.463,178.822 56.103,139.469 56.103,116.397C56.103,60.486 101.59,15 157.5,15C213.41,15 258.897,60.486 258.897,116.397C258.897,139.468 240.538,178.821 205.803,230.201C186.457,258.817 166.909,283.849 157.5,295.598Z" style="fill-rule:nonzero;"/>
                <path d="M195.657,213.956C192.225,211.637 187.562,212.541 185.244,215.973C175.123,230.955 163.785,246.657 151.545,262.643C149.027,265.932 149.651,270.639 152.94,273.157C154.3,274.199 155.903,274.703 157.494,274.703C159.748,274.703 161.978,273.69 163.454,271.762C175.874,255.542 187.387,239.597 197.673,224.37C199.992,220.938 199.09,216.275 195.657,213.956Z" style="fill-rule:nonzero;"/>
                <path d="M157.5,57.5C123.589,57.5 96,85.089 96,119C96,152.911 123.589,180.5 157.5,180.5C191.411,180.5 219,152.911 219,119C219,85.089 191.411,57.5 157.5,57.5ZM157.5,165.5C131.86,165.5 111,144.64 111,119C111,93.36 131.86,72.5 157.5,72.5C183.141,72.5 204,93.36 204,119C204,144.64 183.141,165.5 157.5,165.5Z" style="fill-rule:nonzero;"/>
            </g>
        </g>
    </g>
</svg>
