<?xml version="1.0" encoding="UTF-8" standalone="no"?>
<svg
   width="800px"
   height="800px"
   viewBox="0 0 24 24"
   version="1.1"
   id="svg1"
   sodipodi:docname="gallery.svg"
   inkscape:version="1.4.2 (f4327f4, 2025-05-13)"
   xmlns:inkscape="http://www.inkscape.org/namespaces/inkscape"
   xmlns:sodipodi="http://sodipodi.sourceforge.net/DTD/sodipodi-0.dtd"
   xmlns="http://www.w3.org/2000/svg"
   xmlns:svg="http://www.w3.org/2000/svg">
  <defs
     id="defs1" />
  <sodipodi:namedview
     id="namedview1"
     pagecolor="#ffffff"
     bordercolor="#000000"
     borderopacity="0.25"
     inkscape:showpageshadow="2"
     inkscape:pageopacity="0.0"
     inkscape:pagecheckerboard="0"
     inkscape:deskcolor="#d1d1d1"
     inkscape:zoom="0.91875"
     inkscape:cx="399.45578"
     inkscape:cy="400"
     inkscape:window-width="1920"
     inkscape:window-height="974"
     inkscape:window-x="-11"
     inkscape:window-y="-11"
     inkscape:window-maximized="1"
     inkscape:current-layer="🔍-Product-Icons" />
  <!-- Uploaded to: SVG Repo, www.svgrepo.com, Generator: SVG Repo Mixer Tools -->
  <title
     id="title1">ic_fluent_board_24_filled</title>
  <desc
     id="desc1">Created with Sketch.</desc>
  <g
     id="🔍-Product-Icons"
     stroke="none"
     stroke-width="1"
     fill="none"
     fill-rule="evenodd">
    <g
       id="ic_fluent_board_24_filled"
       fill="#212121"
       fill-rule="nonzero"
       transform="matrix(0.9576425,0,0,0.94529488,0.61686843,0.7244182)">
      <path
         d="M 11.499,9.4991774 11.5,21.001177 6.2500562,21.001836 c -1.7330447,0 -3.1492992,-1.356322 -3.2449113,-3.06547 L 3,17.751939 V 9.4991774 Z m 1.5,5.9999996 H 21.5 l 8.08e-4,2.252746 c -2.09e-4,1.794829 -1.455219,3.249913 -3.250104,3.249913 L 13,21.001177 Z M 18.251352,2.4981774 c 1.733045,0 3.149299,1.3563489 3.244911,3.0654973 l 0.0051,0.1844269 L 21.5,13.999177 H 12.999 L 13,2.4981774 Z m -6.751352,0 -10e-4,5.501 H 3 L 3.0006006,5.7481178 C 3.0008096,3.9532889 4.455819,2.4981774 6.2506479,2.4981774 Z"
         id="🎨-Color"
         style="fill:#ffffff" />
    </g>
  </g>
</svg>
