<?xml version="1.0" encoding="UTF-8" standalone="no"?>
<!-- Uploaded to: SVG Repo, www.svgrepo.com, Generator: SVG Repo Mixer Tools -->

<svg
   fill="#000000"
   version="1.1"
   id="Capa_1"
   width="800px"
   height="800px"
   viewBox="0 0 496.304 496.303"
   xml:space="preserve"
   sodipodi:docname="information.svg"
   inkscape:version="1.4.2 (f4327f4, 2025-05-13)"
   xmlns:inkscape="http://www.inkscape.org/namespaces/inkscape"
   xmlns:sodipodi="http://sodipodi.sourceforge.net/DTD/sodipodi-0.dtd"
   xmlns="http://www.w3.org/2000/svg"
   xmlns:svg="http://www.w3.org/2000/svg"><defs
   id="defs1" /><sodipodi:namedview
   id="namedview1"
   pagecolor="#ffffff"
   bordercolor="#000000"
   borderopacity="0.25"
   inkscape:showpageshadow="2"
   inkscape:pageopacity="0.0"
   inkscape:pagecheckerboard="0"
   inkscape:deskcolor="#d1d1d1"
   inkscape:zoom="0.91875"
   inkscape:cx="312.38095"
   inkscape:cy="319.45578"
   inkscape:window-width="1920"
   inkscape:window-height="974"
   inkscape:window-x="-11"
   inkscape:window-y="-11"
   inkscape:window-maximized="1"
   inkscape:current-layer="Capa_1" />
<g
   id="g1"
   transform="matrix(0.85034014,0,0,0.82584999,40.514612,37.813638)"
   style="fill:#ffffff">
	<path
   d="M 248.146,0 C 111.314,0 0,111.321 0,248.152 0,384.981 111.314,496.303 248.146,496.303 384.981,496.303 496.304,384.981 496.304,248.152 496.304,111.321 384.98,0 248.146,0 Z m 0,472.093 c -123.473,0 -223.935,-100.459 -223.935,-223.941 0,-123.479 100.462,-223.941 223.935,-223.941 123.488,0 223.947,100.462 223.947,223.941 0,123.482 -100.459,223.941 -223.947,223.941 z m 71.39,-88.673 v 32.852 c 0,1.383 -1.123,2.494 -2.482,2.494 H 196.45 c -1.374,0 -2.482,-1.117 -2.482,-2.494 V 383.42 c 0,-1.372 1.114,-2.482 2.482,-2.482 h 34.744 V 205.831 h -35.101 c -1.375,0 -2.468,-1.111 -2.468,-2.474 v -33.6 c 0,-1.38 1.1,-2.479 2.468,-2.479 h 82.293 c 1.371,0 2.482,1.105 2.482,2.479 v 211.181 h 36.186 c 1.359,0 2.482,1.11 2.482,2.482 z M 209.93,105.927 c 0,-20.895 16.929,-37.829 37.829,-37.829 20.886,0 37.826,16.935 37.826,37.829 0,20.894 -16.94,37.829 -37.826,37.829 -20.906,0 -37.829,-16.934 -37.829,-37.829 z"
   id="path1"
   style="fill:#ffffff" />
</g>
<path
   style="fill:#ffffff;stroke-width:4.64632"
   d="m 333.44654,617.61215 -1.73169,-0.69606 v -23.3449 c 0,-17.13095 0.24584,-23.59073 0.92357,-24.26846 0.67961,-0.6796 7.38855,-0.92356 25.39812,-0.92356 H 382.5111 V 451.39388 334.40859 h -24.85938 c -18.30888,0 -25.10273,-0.24336 -25.78294,-0.92356 -0.67766,-0.67766 -0.92357,-7.12806 -0.92357,-24.22592 v -23.30235 l 1.81143,-1.1869 c 1.59819,-1.04717 8.49119,-1.16251 58.55488,-0.97979 55.15578,0.20131 56.77402,0.2489 57.83568,1.70107 0.93377,1.27724 1.09222,21.90512 1.09222,142.191 v 140.69703 h 25.24419 c 18.60819,0 25.48698,0.24278 26.16776,0.92356 0.67765,0.67765 0.92357,7.12598 0.92357,24.21659 0,22.24143 -0.0672,23.32898 -1.48868,24.08973 -1.89623,1.01483 -165.11515,1.01784 -167.63972,0.003 z"
   id="path3"
   transform="matrix(0.62038,0,0,0.62038,0,-5e-4)" /><path
   style="fill:#ffffff;stroke-width:0;stroke-dasharray:none;stroke:none;stroke-opacity:1"
   d="m 394.82534,250.91266 c -11.33405,-2.54959 -20.21429,-7.55024 -27.92732,-15.72645 -18.41307,-19.51883 -17.73677,-48.94732 1.56359,-68.03775 27.51607,-27.21678 74.32854,-15.73584 85.7419,21.02853 2.30915,7.43817 2.48192,19.57135 0.3781,26.55258 -5.23266,17.36385 -18.98952,30.77275 -36.33843,35.41933 -6.5981,1.76717 -17.39222,2.11922 -23.41784,0.76376 z"
   id="path4"
   transform="matrix(0.62038,0,0,0.62038,0,-5e-4)" /></svg>
