<?xml version="1.0" encoding="UTF-8" standalone="no"?>
<!DOCTYPE svg PUBLIC "-//W3C//DTD SVG 1.1//EN" "http://www.w3.org/Graphics/SVG/1.1/DTD/svg11.dtd">
<svg width="100%" height="100%" viewBox="0 0 3508 4961" version="1.1" xmlns="http://www.w3.org/2000/svg" xmlns:xlink="http://www.w3.org/1999/xlink" xml:space="preserve" xmlns:serif="http://www.serif.com/" style="fill-rule:evenodd;clip-rule:evenodd;stroke-linecap:round;stroke-linejoin:round;stroke-miterlimit:1.5;">
    <g transform="matrix(-2.5068,0,-0,-2.5068,5660.580083,9394.542724)">
        <rect x="1170.953" y="1927.405" width="157.472" height="649.228" style="fill:rgb(108,190,201);stroke:black;stroke-width:7.3px;"/>
    </g>
    <g transform="matrix(-2.5068,0,-0,-2.5068,4884.927398,9394.542724)">
        <rect x="1170.953" y="1927.405" width="157.472" height="649.228" style="fill:rgb(108,190,201);stroke:black;stroke-width:7.3px;"/>
    </g>
    <g transform="matrix(-2.5068,0,-0,-2.5068,4112.737448,9394.542724)">
        <rect x="1170.953" y="1927.405" width="157.472" height="649.228" style="fill:rgb(108,190,201);stroke:black;stroke-width:7.3px;"/>
    </g>
    <g transform="matrix(-2.5068,0,-0,-2.5068,5658.848715,7367.700209)">
        <rect x="1170.953" y="1927.405" width="157.472" height="649.228" style="fill:rgb(108,190,201);stroke:black;stroke-width:7.3px;"/>
    </g>
    <g transform="matrix(-2.5068,0,-0,-2.5068,4883.19603,7367.700209)">
        <rect x="1170.953" y="1927.405" width="157.472" height="649.228" style="fill:rgb(108,190,201);stroke:black;stroke-width:7.3px;"/>
    </g>
    <g transform="matrix(-2.5068,0,-0,-2.5068,4111.00608,7367.700209)">
        <rect x="1170.953" y="1927.405" width="157.472" height="649.228" style="fill:rgb(108,190,201);stroke:black;stroke-width:7.3px;"/>
    </g>
    <g transform="matrix(-2.5068,0,-0,-4.032977,5833.807694,12704.69168)">
        <rect x="2099.212" y="1963.32" width="82.88" height="571.873" style="fill:rgb(53,194,245);"/>
    </g>
    <g transform="matrix(-2.5068,0,-0,-2.107344,5833.807694,6073.238997)">
        <rect x="2099.212" y="1963.32" width="82.88" height="571.873" style="fill:rgb(53,194,245);"/>
    </g>
    <g transform="matrix(2.5068,-0,-0,7.231848,-2325.933679,-13755.229736)">
        <rect x="2099.212" y="1963.32" width="82.88" height="571.873" style="fill:rgb(53,194,245);"/>
    </g>
    <g transform="matrix(-2.5578,0,-0,-2.5068,5803.985273,8805.31746)">
        <rect x="1039.898" y="1603.1" width="1021.676" height="82.88" style="fill:rgb(53,194,245);"/>
    </g>
    <g transform="matrix(-2.216525,0,-0,-2.5068,5242.044777,7755.557601)">
        <path d="M946.486,2963.471L1065.377,2963.471" style="fill:none;stroke:black;stroke-width:7.73px;"/>
    </g>
    <g transform="matrix(-2.216525,0,-0,-2.5068,5242.044777,7755.557601)">
        <path d="M1316.284,2963.471L1443.086,2963.471" style="fill:none;stroke:black;stroke-width:7.73px;"/>
    </g>
    <g transform="matrix(-2.216525,0,-0,-2.5068,5242.044777,7755.557601)">
        <path d="M1709.493,2963.471L1828.889,2963.471" style="fill:none;stroke:black;stroke-width:7.73px;"/>
    </g>
    <g transform="matrix(-2.216525,0,-0,-2.5068,5308.540533,7755.557601)">
        <path d="M2061.574,2963.471L2230.88,2963.471" style="fill:none;stroke:black;stroke-width:7.73px;"/>
    </g>
    <g transform="matrix(5.37493,0,0,44.322071,-1026.735702,-72971.505926)">
        <rect x="258.696" y="1648.99" width="517.289" height="105.598" style="fill:none;stroke:black;stroke-width:0.41px;"/>
    </g>
</svg>
