<?xml version="1.0" encoding="UTF-8" standalone="no"?>
<!DOCTYPE svg PUBLIC "-//W3C//DTD SVG 1.1//EN" "http://www.w3.org/Graphics/SVG/1.1/DTD/svg11.dtd">
<svg width="100%" height="100%" viewBox="0 0 3508 4961" version="1.1" xmlns="http://www.w3.org/2000/svg" xmlns:xlink="http://www.w3.org/1999/xlink" xml:space="preserve" xmlns:serif="http://www.serif.com/" style="fill-rule:evenodd;clip-rule:evenodd;stroke-linecap:round;stroke-linejoin:round;stroke-miterlimit:1.5;">
    <g transform="matrix(2.701075,0,0,-2.701075,-2033.925647,8552.131083)">
        <rect x="1170.953" y="1927.405" width="157.472" height="649.228" style="fill:rgb(110,108,201);stroke:black;stroke-width:6.77px;"/>
    </g>
    <g transform="matrix(2.701075,0,0,-2.701075,-1198.16037,8552.131083)">
        <rect x="1170.953" y="1927.405" width="157.472" height="649.228" style="fill:rgb(110,108,201);stroke:black;stroke-width:6.77px;"/>
    </g>
    <g transform="matrix(2.701075,0,0,-2.701075,-2908.725529,8544.668893)">
        <rect x="2099.212" y="1963.32" width="82.88" height="571.873" style="fill:rgb(53,82,245);stroke:black;stroke-width:6.77px;"/>
    </g>
    <g transform="matrix(2.701075,0,0,-2.701075,-5147.524415,8552.131083)">
        <rect x="2099.212" y="1963.32" width="82.88" height="571.873" style="fill:rgb(53,82,245);stroke:black;stroke-width:6.77px;"/>
    </g>
    <g transform="matrix(2.257845,0,0,-2.701075,-1749.534326,8799.133403)">
        <rect x="1039.898" y="1603.1" width="1021.676" height="82.88" style="fill:rgb(53,82,245);stroke:black;stroke-width:7.35px;"/>
    </g>
    <g transform="matrix(2.701075,0,0,-2.701075,-2436.867419,8552.131083)">
        <path d="M1316.284,2963.471L1443.086,2963.471" style="fill:none;stroke:black;stroke-width:6.77px;"/>
    </g>
    <g transform="matrix(2.701075,0,0,-2.701075,-2436.867419,8552.131083)">
        <path d="M1709.493,2963.471L1828.889,2963.471" style="fill:none;stroke:black;stroke-width:6.77px;"/>
    </g>
    <g transform="matrix(4.89061,0,0,-40.743449,-776.176944,71817.075588)">
        <rect x="258.696" y="1648.99" width="517.289" height="105.598" style="fill:none;stroke:black;stroke-width:0.45px;"/>
    </g>
</svg>
